<?xml version="1.0" encoding="UTF-8" standalone="no"?>
<svg
   xmlns:dc="http://purl.org/dc/elements/1.1/"
   xmlns:cc="http://creativecommons.org/ns#"
   xmlns:rdf="http://www.w3.org/1999/02/22-rdf-syntax-ns#"
   xmlns:svg="http://www.w3.org/2000/svg"
   xmlns="http://www.w3.org/2000/svg"
   xmlns:sodipodi="http://sodipodi.sourceforge.net/DTD/sodipodi-0.dtd"
   xmlns:inkscape="http://www.inkscape.org/namespaces/inkscape"
   version="1.1"
   id="svg2"
   width="300"
   height="300"
   viewBox="0 0 300 300"
   sodipodi:docname="logo.svg"
   inkscape:version="1.0.2 (e86c870879, 2021-01-15)">
  <metadata
     id="metadata8">
    <rdf:RDF>
      <cc:Work
         rdf:about="">
        <dc:format>image/svg+xml</dc:format>
        <dc:type
           rdf:resource="http://purl.org/dc/dcmitype/StillImage" />
        <dc:title />
      </cc:Work>
    </rdf:RDF>
  </metadata>
  <defs
     id="defs6" />
  <sodipodi:namedview
     pagecolor="#ffffff"
     bordercolor="#666666"
     borderopacity="1"
     objecttolerance="10"
     gridtolerance="10"
     guidetolerance="10"
     inkscape:pageopacity="0"
     inkscape:pageshadow="2"
     inkscape:window-width="1600"
     inkscape:window-height="836"
     id="namedview4"
     showgrid="false"
     inkscape:zoom="0.36180297"
     inkscape:cx="-203.78882"
     inkscape:cy="706.70944"
     inkscape:window-x="0"
     inkscape:window-y="0"
     inkscape:window-maximized="1"
     inkscape:current-layer="g10"
     inkscape:document-rotation="0" />
  <g
     inkscape:groupmode="layer"
     inkscape:label="Image"
     id="g10">
    <path
       style="fill:#7d61e8;fill-opacity:1"
       d="m -85.403413,168.17109 c -30.879337,14.58939 -63.723407,18.62085 -95.626157,11.73772 -21.3378,-4.60371 -40.73546,-14.54157 -52.94702,-27.12596 -13.70041,-14.11868 -22.64802,-39.52419 -21.11265,-59.946438 0.70066,-9.3197 5.55634,-27.836907 10.79877,-41.181272 2.88592,-7.345991 6.50329,-16.549331 8.03858,-20.451858 1.5353,-3.902528 5.73583,-18.267099 9.33453,-31.92126457 9.2474,-35.08640943 16.52431,-50.27755743 32.11165,-67.03570243 14.6529,-12.447997 28.71509,-23.477779 46.40809,-28.19518 29.42594,-7.768675 57.787819,-3.071351 86.171807,14.271886 33.008871,20.169128 55.9188411,51.449765 64.6665202,88.2938734 C 15.646627,62.238527 -10.857061,119.86142 -66.805865,157.16909 c -6.269171,4.18039 -14.638065,9.13129 -18.597548,11.002 z"
       id="path936"
       sodipodi:nodetypes="sssssssccssss"
       inkscape:export-xdpi="115"
       inkscape:export-ydpi="115" />
    <path
       style="fill:#61afe8;fill-opacity:1"
       d="m 205.49458,161.44872 c 30.87934,14.58939 63.72341,18.62085 95.62616,11.73772 21.3378,-4.60371 40.73546,-14.54157 52.94702,-27.12596 13.70041,-14.11868 22.64802,-39.52419 21.11265,-59.946435 -0.70066,-9.3197 -5.55634,-27.83691 -10.79877,-41.18127 -2.88592,-7.34599 -6.50329,-16.54933 -8.03858,-20.45186 -1.5353,-3.90253 -5.73583,-18.2671002 -9.33453,-31.9212602 -9.2474,-35.0864098 -16.52431,-50.2775598 -32.11165,-67.0357098 -14.6529,-12.447992 -28.71509,-23.477774 -46.40809,-28.195175 -29.42594,-7.76868 -57.78782,-3.07135 -86.17181,14.271886 -33.00887,20.169129 -55.91884,51.449769 -64.66652,88.29386877 C 104.44454,55.516165 130.94823,113.13905 186.89703,150.44672 c 6.26918,4.18039 14.63807,9.13129 18.59755,11.002 z"
       id="path936-3"
       sodipodi:nodetypes="sssssssccssss"
       inkscape:export-xdpi="115"
       inkscape:export-ydpi="115" />
    <text
       xml:space="preserve"
       style="font-style:normal;font-weight:normal;font-size:49.2602px;line-height:1.25;font-family:sans-serif;fill:#ffffff;fill-opacity:1;stroke:none;stroke-width:1.2315"
       x="217.43484"
       y="108.13747"
       id="text863"
       inkscape:export-xdpi="115"
       inkscape:export-ydpi="115"><tspan
         sodipodi:role="line"
         id="tspan861"
         x="217.43484"
         y="108.13747"
         style="font-style:normal;font-variant:normal;font-weight:normal;font-stretch:normal;font-size:236.45px;font-family:Caladea;-inkscape-font-specification:Caladea;fill:#ffffff;fill-opacity:1;stroke-width:1.2315">!</tspan></text>
    <path
       style="fill:#4ecf7a;fill-opacity:1"
       d="m -116.07155,238.80906 c -30.87934,-14.58939 -63.72341,-18.62085 -95.62616,-11.73772 -21.3378,4.60371 -40.73546,14.54157 -52.94702,27.12596 -13.70041,14.11868 -22.64802,39.52419 -21.11265,59.94643 0.70066,9.3197 5.55634,27.83692 10.79877,41.18128 2.88592,7.34598 6.50329,16.54933 8.03858,20.45185 1.5353,3.90254 5.73583,18.26711 9.33453,31.92127 9.2474,35.0864 16.52431,50.27755 32.11165,67.03571 14.6529,12.44799 28.71509,23.47777 46.40809,28.19517 29.42594,7.76868 57.78782,3.07135 86.171809,-14.27189 33.00887,-20.16912 55.91884,-51.44976 64.66652,-88.29386 13.20592,-55.62164 -13.29777,-113.24453 -69.24657,-150.5522 -6.269179,-4.18039 -14.638069,-9.13129 -18.597549,-11.002 z"
       id="path936-3-3"
       sodipodi:nodetypes="sssssssccssss"
       inkscape:export-xdpi="115"
       inkscape:export-ydpi="115" />
    <path
       style="fill:#e87361;fill-opacity:1"
       d="m 225.71125,242.30176 c 30.87934,-14.58939 63.72341,-18.62085 95.62616,-11.73772 21.3378,4.60371 40.73546,14.54157 52.94702,27.12596 13.70041,14.11868 22.64802,39.52419 21.11265,59.94643 -0.70066,9.3197 -5.55634,27.83692 -10.79877,41.18127 -2.88592,7.34599 -6.50329,16.54933 -8.03858,20.45187 -1.5353,3.90252 -5.73583,18.2671 -9.33453,31.92126 -9.2474,35.0864 -16.52431,50.27755 -32.11165,67.0357 -14.6529,12.448 -28.71509,23.47778 -46.40809,28.19518 -29.42594,7.76868 -57.78782,3.07135 -86.17181,-14.27189 -33.00887,-20.16912 -55.91884,-51.44977 -64.66652,-88.29386 -13.20592,-55.62165 13.29777,-113.24453 69.24657,-150.5522 6.26918,-4.18039 14.63807,-9.13129 18.59755,-11.002 z"
       id="path936-3-5"
       sodipodi:nodetypes="sssssssccssss"
       inkscape:export-xdpi="115"
       inkscape:export-ydpi="115" />
    <text
       xml:space="preserve"
       style="font-style:normal;font-weight:normal;font-size:49.2602px;line-height:1.25;font-family:sans-serif;fill:#ffffff;fill-opacity:1;stroke:none;stroke-width:1.2315"
       x="207.10788"
       y="427.66351"
       id="text863-3"
       inkscape:export-xdpi="115"
       inkscape:export-ydpi="115"><tspan
         sodipodi:role="line"
         id="tspan861-5"
         x="207.10788"
         y="427.66351"
         style="font-style:normal;font-variant:normal;font-weight:normal;font-stretch:normal;font-size:236.45px;font-family:'Comic Sans MS';-inkscape-font-specification:'Comic Sans MS';fill:#ffffff;fill-opacity:1;stroke-width:1.2315">x</tspan></text>
    <path
       style="fill:#ffffff;fill-opacity:1;stroke-width:0.919462"
       d="m -196.25808,394.1842 c -18.28808,-23.03368 -21.07804,-27.22168 -17.53487,-31.56623 2.71138,-3.32463 9.27402,-15.38352 13.08994,-15.33315 2.47484,0.0327 4.421,4.45871 14.49972,27.25223 l 14.12673,31.94831 c 24.3929,-21.78809 53.12591,-105.25576 86.937416,-104.7234 34.384998,6.32767 17.061972,2.78251 -21.378346,43.49592 -18.36653,19.45261 -45.39436,63.53917 -67.06059,96.17723 -5.48217,3.25636 -1.03508,-19.9893 -22.68,-47.25091 z"
       id="path865"
       sodipodi:nodetypes="ssssccscs"
       inkscape:export-xdpi="115"
       inkscape:export-ydpi="115" />
  </g>
  <g
     inkscape:groupmode="layer"
     id="layer1"
     inkscape:label="Image 1">
    <path
       style="fill:#00ffbe;fill-opacity:1;stroke:#00ffbe;stroke-width:5.2;stroke-miterlimit:4;stroke-dasharray:none;stroke-opacity:1;paint-order:stroke fill markers"
       d="m -135.60541,128.36005 c -0.59632,-1.03903 -1.93434,-2.37705 -2.97337,-2.97337 -4.53221,-0.32621 9.03888,-1.17351 13.58278,-1.15517 7.60239,0.11565 16.66581,-0.21163 12.85501,1.70771 -1.38901,-2.10267 -1.88128,1.3818 -2.47761,2.42083 l -1.08422,1.88914 h -9.40918 -9.40919 z m -7.38455,-14.50611 c -1.76213,-1.23425 -1.99196,-2.36602 -0.43469,-3.92329 0.89968,-0.89969 3.50877,-1.04916 18.31265,-1.04916 18.9657,0 19.36856,0.26784 19.36181,2.01572 -0.0145,3.75172 -1.18376,3.99606 -19.36181,3.99606 -13.75738,0 -16.63276,-0.16716 -17.87796,-1.03933 z m 5.86028,-13.20073 c -8.64618,-2.009174 -11.50272,-5.295908 -13.35504,-15.366278 -0.86765,-4.71705 -1.63792,-6.11585 -8.54628,-15.51988 -8.98123,-12.22574 -12.81641,-21.76197 -12.81641,-31.86818 0,-12.17831 4.71076,-23.25712 13.67721,-32.166173 6.00216,-5.96374442 10.57002,-8.9254819 17.81249,-11.5493649 4.49925,-1.630038 5.738,-1.775391 15.24571,-1.788904 9.57952,-0.01361 10.71246,0.118222 15.24549,1.774067 18.961115,6.9261905 31.489925,24.3250749 31.489925,43.7303749 0,10.10621 -3.83519,19.64244 -12.81642,31.86818 -7.01602,9.55058 -7.57146,10.59706 -8.844505,16.66335 -0.6744,3.213586 -1.86723,6.794156 -2.65076,7.95682 -1.70019,2.52292 -5.0054,4.857674 -8.32458,5.880378 -3.68444,1.13524 -21.74348,1.40188 -26.11683,0.38561 z m 22.74963,-8.462712 c 3.61875,-1.00526 5.23104,-3.16635 6.02077,-8.070116 0.92576,-5.74846 2.50425,-9.08505 7.519,-15.89352 6.572285,-8.92315 8.391445,-11.79228 10.976115,-17.31126 2.14274,-4.57532 2.42904,-5.83973 2.67376,-11.80851 0.2412,-5.88287 0.064,-7.31035 -1.47762,-11.90273 -3.13571,-9.34111 -7.65261,-15.27004 -15.657845,-20.55268 -6.72011,-4.4345834 -12.70563,-6.22797341 -20.78613,-6.22797341 -8.08051,0 -14.06603,1.79339001 -20.78614,6.22797341 -8.00523,5.28264 -12.52213,11.21157 -15.65783,20.55268 -1.54162,4.59238 -1.71883,6.01986 -1.47763,11.90273 0.38301,9.34158 2.65963,14.19839 13.64988,29.11977 5.01474,6.80847 6.59323,10.14506 7.51899,15.89352 0.76678,4.761266 2.40611,7.070016 5.69974,8.027246 2.823,0.82044 18.87213,0.85204 21.78494,0.0429 z m -87.20808,-6.309606 c -3.46279,-3.46278 -2.06242,-5.37387 8.32276,-11.35812 9.2132,-5.30892 9.92767,-5.52346 12.26668,-3.68359 2.26346,1.78043 2.39465,4.56249 0.30493,6.46617 -2.23635,2.03726 -16.70348,10.21432 -18.07151,10.21432 -0.65125,0 -1.92154,-0.73745 -2.82286,-1.63878 z m 141.235325,-2.78722 c -9.05746,-5.22307 -10.68311,-6.57553 -10.66943,-8.87644 0.0126,-2.11016 0.54446,-2.95352 2.51868,-3.99347 1.99694,-1.0519 2.73837,-0.77456 11.63862,4.35347 7.88212,4.54142 9.86784,6.22638 9.86784,8.37321 0,1.62633 -2.8848,4.56923 -4.47901,4.56923 -0.66081,0 -4.65532,-1.9917 -8.8767,-4.426 z M -213.24164,43.454852 c -0.73441,-0.73441 -1.33529,-2.0864 -1.33529,-3.00442 0,-0.91802 0.60088,-2.27 1.33529,-3.00442 1.22352,-1.22351 2.2255,-1.3353 11.96922,-1.3353 h 10.63393 l 1.38375,1.75917 c 1.73118,2.20083 1.73118,2.96027 0,5.16111 l -1.38375,1.75916 h -10.63393 c -9.74372,0 -10.7457,-0.11178 -11.96922,-1.3353 z m 152.272375,-0.42386 c -0.76107,-0.96754 -1.38375,-2.03883 -1.38375,-2.38066 0,-0.92853 1.43115,-3.46867 2.2698,-4.02866 0.40404,-0.26978 5.46658,-0.49511 11.25008,-0.50073 9.63295,-0.009 10.62754,0.10184 11.85077,1.32507 0.73441,0.73442 1.3353,2.0864 1.3353,3.00442 0,0.91802 -0.60089,2.27001 -1.3353,3.00442 -1.22352,1.22352 -2.2255,1.3353 -11.96922,1.3353 h -10.63392 z M -192.90124,6.506861 c -9.76583,-5.52886841 -11.34723,-7.21712242 -9.63704,-10.2881569 0.78617,-1.411738 1.6033,-1.884345 3.53594,-2.045085 2.11014,-0.175503 3.852,0.572517 10.85442,4.6612965 8.60231,5.0229764 9.56169,6.0641904 8.71093,9.4539166 -0.3369,1.34233 -2.79506,3.1188798 -4.31549,3.1188798 -0.27072,0 -4.38767,-2.2053798 -9.14876,-4.900851 z m 124.024135,4.079521 c -0.8342,-0.40204 -1.69298,-1.4332498 -1.90841,-2.2915898 -0.86745,-3.4561732 0.0788,-4.4594656 9.21867,-9.7740296 4.86138,-2.8267605 9.39087,-5.1395665 10.06553,-5.1395665 1.61486,0 4.50422,2.931065 4.50422,4.5692285 0,0.710425 -0.52578,1.92038898 -1.16839,2.68880899 -1.2302,1.47103701 -17.33574,10.80091841 -18.51088,10.72328841 -0.37621,-0.0248 -1.36654,-0.37412 -2.20074,-0.77614 z m -92.569265,-25.383883 c -2.48425,-2.206781 -10.40104,-16.257535 -10.40104,-18.459815 0,-2.366285 1.86729,-4.073329 4.45572,-4.073329 2.51554,0 2.99729,0.573453 8.45728,10.067056 5.28027,9.181116 5.59892,11.299046 1.98607,13.2007 -2.02875,1.06785 -2.56809,0.979765 -4.49803,-0.734612 z m 68.047685,0.704406 c -3.46318,-1.963845 -3.12633,-4.067361 2.10909,-13.170494 5.50289,-9.568194 5.92773,-10.067056 8.57329,-10.067056 2.53383,0 4.33972,1.743304 4.33972,4.189335 0,2.096348 -8.00616,16.216411 -10.40105,18.343809 -1.89313,1.681683 -2.68484,1.802365 -4.62105,0.704406 z m -35.047955,-10.365462 c -1.34285,-1.707152 -1.4159,-2.43194 -1.21684,-12.072892 0.19084,-9.243388 0.3398,-10.350193 1.50776,-11.202966 1.6591,-1.211378 4.42834,-1.211378 6.08744,0 1.16795,0.852773 1.31692,1.959578 1.50776,11.202966 0.19906,9.640952 0.12601,10.36574 -1.21684,12.072892 -0.95867,1.21875 -2.0556,1.816185 -3.33464,1.816185 -1.27904,0 -2.37598,-0.597435 -3.33464,-1.816185 z"
       id="path837"
       sodipodi:nodetypes="scccscccsssssssssssssssssssssssssssssssssssssssssssscssssssssscsscssssscsssscsssssssscsssssccssssssssssssssssssss"
       inkscape:export-xdpi="115"
       inkscape:export-ydpi="115" />
  </g>
</svg>
